<svg width="98" height="123" viewBox="0 0 98 123" fill="none" xmlns="http://www.w3.org/2000/svg">
<path d="M24.5612 84.8744C17.4797 77.7606 13.9389 69.2628 13.9389 59.3807C13.9389 49.4987 17.4797 41.0169 24.5612 33.9353C31.6428 26.8537 40.1246 23.313 50.0066 23.313C58.0539 23.313 65.3769 25.8076 71.9756 30.7969L66.2299 36.5426C61.2084 32.7121 55.8007 30.7969 50.0066 30.7969C42.5066 30.7969 36.101 33.5973 30.7898 39.1982C25.4786 44.7991 22.823 51.5266 22.823 59.3807C22.823 67.2348 25.4786 73.9623 30.7898 79.5632C36.101 85.1641 42.5066 87.9646 50.0066 87.9646C55.9294 87.9646 61.3372 86.0815 66.2299 82.3154L71.9756 88.0611C65.3125 93.0182 57.9895 95.4968 50.0066 95.4968C40.1246 95.4968 31.6428 91.956 24.5612 84.8744Z" fill="black"/>
<path d="M48.9519 60.2704C48.9519 65.1245 44.9197 69.1055 39.8884 69.1055C34.8571 69.1055 30.8248 65.1245 30.8248 60.2704C30.8248 55.4162 34.8571 51.4353 39.8884 51.4353C44.9197 51.4353 48.9519 55.4162 48.9519 60.2704Z" stroke="#FE7B43" stroke-width="2.40345"/>
<path d="M79.7478 60.2704C79.7478 65.1245 75.7155 69.1055 70.6842 69.1055C65.6529 69.1055 61.6207 65.1245 61.6207 60.2704C61.6207 55.4162 65.6529 51.4353 70.6842 51.4353C75.7155 51.4353 79.7478 55.4162 79.7478 60.2704Z" stroke="#FE7B43" stroke-width="2.40345"/>
<mask id="path-4-outside-1_26_13" maskUnits="userSpaceOnUse" x="46.5874" y="52.7464" width="18" height="11" fill="black">
<rect fill="white" x="46.5874" y="52.7464" width="18" height="11"/>
<path d="M62.9853 62.7796C62.9853 60.3838 62.1741 58.0862 60.7303 56.3922C59.2865 54.6981 57.3282 53.7464 55.2863 53.7464C53.2444 53.7464 51.2862 54.6981 49.8423 56.3922C48.3985 58.0862 47.5874 60.3838 47.5874 62.7796H48.9621C48.9621 60.8116 49.6284 58.9243 50.8144 57.5327C52.0004 56.1412 53.609 55.3594 55.2863 55.3594C56.9636 55.3594 58.5722 56.1412 59.7582 57.5327C60.9442 58.9243 61.6105 60.8116 61.6105 62.7796H62.9853Z"/>
</mask>
<path d="M62.9853 62.7796C62.9853 60.3838 62.1741 58.0862 60.7303 56.3922C59.2865 54.6981 57.3282 53.7464 55.2863 53.7464C53.2444 53.7464 51.2862 54.6981 49.8423 56.3922C48.3985 58.0862 47.5874 60.3838 47.5874 62.7796H48.9621C48.9621 60.8116 49.6284 58.9243 50.8144 57.5327C52.0004 56.1412 53.609 55.3594 55.2863 55.3594C56.9636 55.3594 58.5722 56.1412 59.7582 57.5327C60.9442 58.9243 61.6105 60.8116 61.6105 62.7796H62.9853Z" fill="#FE7B43"/>
<path d="M62.9853 62.7796C62.9853 60.3838 62.1741 58.0862 60.7303 56.3922C59.2865 54.6981 57.3282 53.7464 55.2863 53.7464C53.2444 53.7464 51.2862 54.6981 49.8423 56.3922C48.3985 58.0862 47.5874 60.3838 47.5874 62.7796H48.9621C48.9621 60.8116 49.6284 58.9243 50.8144 57.5327C52.0004 56.1412 53.609 55.3594 55.2863 55.3594C56.9636 55.3594 58.5722 56.1412 59.7582 57.5327C60.9442 58.9243 61.6105 60.8116 61.6105 62.7796H62.9853Z" stroke="#FE7B43" stroke-width="1.3734" mask="url(#path-4-outside-1_26_13)"/>
</svg>
